# xmcd
#
# Track frame offsets:
#	150
#	33885
#	46590
#	58960
#	78650
#	92925
#	118635
#	131315
#	146265
#	162095
#	184345
#	206995
# Disc length: 2954 seconds
# Revision: 1
# Processed by: cddbd v1.5.1PL2 Copyright (c) Steve Scherf et al.
#
# Submitted via: libkcddb 0.21
#
DISCID=a40b880c
DTITLE=Cinqui So - Polyphonies Corses
DYEAR=1900
DGENRE=A Cappella
TTITLE0=Dio vi salvi regina
TTITLE1=Com acqua linda
TTITLE2=Castiglione
TTITLE3=I lodi di Santeramu
TTITLE4=Kyrie
TTITLE5=Gloria
TTITLE6=Sanctus
TTITLE7=Agbus Dei
TTITLE8=O Salutaris
TTITLE9=Tantum Ergo
TTITLE10=E Lode di u sepolcro
TTITLE11=Canale di Verde
EXTD=Ricordu cdr143
EXTT0=
EXTT1=
EXTT2=
EXTT3=
EXTT4=
EXTT5=
EXTT6=
EXTT7=
EXTT8=
EXTT9=
EXTT10=
EXTT11=
PLAYORDER=
